<svg xmlns="http://www.w3.org/2000/svg" xmlns:xlink="http://www.w3.org/1999/xlink" viewBox="0 0 290 290"><defs><style>.cls-1{fill:none;}.cls-2{clip-path:url(#clip-path);}.cls-3{fill:#1f7f9b;}.cls-4{fill:#fff;}</style><clipPath id="clip-path"><rect class="cls-1" width="290" height="290"/></clipPath></defs><g id="Layer_2" data-name="Layer 2"><g id="Layer_1-2" data-name="Layer 1"><g class="cls-2"><path class="cls-3" d="M290,145A145,145,0,1,0,122.34,288.24V186.91H85.53V145h36.81V113.05c0-36.34,21.65-56.41,54.77-56.41a223.26,223.26,0,0,1,32.46,2.83V95.16H191.29c-18,0-23.63,11.17-23.63,22.64V145h40.21l-6.43,41.91H167.66V288.24A145,145,0,0,0,290,145"/><path class="cls-4" d="M201.44,186.91,207.87,145H167.65V117.8c0-11.47,5.63-22.64,23.64-22.64h18.28V59.47a223.08,223.08,0,0,0-32.46-2.83c-33.12,0-54.76,20.07-54.76,56.42V145H85.52v41.91h36.83V288.24a146.63,146.63,0,0,0,45.3,0V186.91Z"/></g></g></g></svg>