<svg xmlns="http://www.w3.org/2000/svg" xmlns:xlink="http://www.w3.org/1999/xlink" viewBox="0 0 290 290"><defs><style>.cls-1{fill:none;}.cls-2{clip-path:url(#clip-path);}.cls-3{fill:#fff;}</style><clipPath id="clip-path"><rect class="cls-1" width="290" height="290"/></clipPath></defs><title>instagram</title><g id="Layer_2" data-name="Layer 2"><g id="Layer_1-2" data-name="Layer 1"><g class="cls-2"><path d="M290,145A145,145,0,1,1,145,0,145,145,0,0,1,290,145"/><path class="cls-3" d="M145,68.89c24.79,0,27.73.1,37.52.54,9,.41,14,1.92,17.24,3.2a30.69,30.69,0,0,1,17.61,17.62c1.27,3.27,2.79,8.18,3.2,17.24.45,9.78.54,12.72.54,37.51s-.09,27.72-.54,37.52c-.41,9-1.93,14-3.2,17.24a30.79,30.79,0,0,1-17.61,17.61c-3.28,1.27-8.19,2.79-17.24,3.2-9.79.45-12.73.54-37.52.54s-27.73-.09-37.51-.54c-9.06-.41-14-1.93-17.24-3.2a30.77,30.77,0,0,1-17.62-17.61c-1.27-3.28-2.79-8.19-3.2-17.24-.44-9.8-.54-12.73-.54-37.52s.1-27.73.54-37.51c.41-9.06,1.93-14,3.2-17.24A30.67,30.67,0,0,1,90.25,72.63c3.27-1.28,8.18-2.79,17.24-3.2,9.78-.44,12.72-.54,37.51-.54m0-16.73c-25.21,0-28.37.11-38.28.56s-16.63,2-22.53,4.32A47.43,47.43,0,0,0,57,84.19c-2.3,5.9-3.87,12.65-4.32,22.53s-.56,13.06-.56,38.28.11,28.37.56,38.28,2,16.62,4.32,22.54A47.53,47.53,0,0,0,84.19,233c5.9,2.3,12.65,3.86,22.53,4.32s13.07.56,38.28.56,28.37-.11,38.28-.56,16.62-2,22.54-4.32A47.55,47.55,0,0,0,233,205.82c2.3-5.92,3.86-12.66,4.32-22.54s.56-13.07.56-38.28-.12-28.37-.56-38.28-2-16.63-4.32-22.53A47.45,47.45,0,0,0,205.82,57c-5.92-2.3-12.66-3.87-22.54-4.32s-13.07-.56-38.28-.56"/><path class="cls-3" d="M145,97.33A47.67,47.67,0,1,0,192.67,145,47.67,47.67,0,0,0,145,97.33m0,78.61A30.95,30.95,0,1,1,176,145,30.95,30.95,0,0,1,145,175.94"/><path class="cls-3" d="M205.69,95.44A11.14,11.14,0,1,1,194.55,84.3a11.14,11.14,0,0,1,11.14,11.14"/></g></g></g></svg>