<svg xmlns="http://www.w3.org/2000/svg" xmlns:xlink="http://www.w3.org/1999/xlink" viewBox="0 0 290 290"><defs><style>.cls-1{fill:none;}.cls-2{clip-path:url(#clip-path);}.cls-3{fill:#fff;}.cls-3,.cls-4{fill-rule:evenodd;}.cls-4{fill:#1f7f9b;}</style><clipPath id="clip-path"><rect class="cls-1" width="290" height="290"/></clipPath></defs><g id="Layer_2" data-name="Layer 2"><g id="Layer_1-2" data-name="Layer 1"><g class="cls-2"><path class="cls-3" d="M290,145A145,145,0,1,1,145,0,145,145,0,0,1,290,145"/><path class="cls-4" d="M226.57,139.92c0-12.86-4.45-22.65-12.24-29.18-9.34-7.79-18.49-11.6-31.81-11.6-6.44,0-10.7,1-16.85,3.09s-13,6.52-20.67,11.86V99.59H115.37V208.43h29.54v-39.5c0-11.61.46-19.22,1.45-22.66,1.91-6.7,5.25-12,10.16-15.77a27.78,27.78,0,0,1,17.57-5.72,24.32,24.32,0,0,1,13.23,3.46,18.17,18.17,0,0,1,7.52,10c1.45,4.35,2.18,13.23,2.18,26.55v43.59h29.55ZM93.07,99.59H63.43V208.43H93.07Zm-4.35-31.9a14.66,14.66,0,0,0-10.5-4.25,14.49,14.49,0,0,0-10.43,4.17,13.75,13.75,0,0,0-4.26,10,14.15,14.15,0,0,0,4.35,10.42,14.61,14.61,0,0,0,10.5,4.26,14,14,0,0,0,10.34-4.16,14.24,14.24,0,0,0,0-20.49M145,290A145,145,0,1,1,290,145,145,145,0,0,1,145,290"/></g></g></g></svg>