<svg xmlns="http://www.w3.org/2000/svg" viewBox="0 0 972.08 415.11"><defs><style>.cls-1{font-size:160.7px;fill:#be4f1c;font-family:GTSuperDsTrial-Su, GT Super Ds Trial;letter-spacing:-0.02em;}.cls-2{letter-spacing:0em;}.cls-3{letter-spacing:-0.01em;}.cls-4{letter-spacing:-0.02em;}.cls-5{letter-spacing:-0.02em;}.cls-6{letter-spacing:-0.01em;}.cls-7{letter-spacing:-0.02em;}.cls-8{letter-spacing:0em;}.cls-9{fill:#231f20;}</style></defs><g id="Layer_2" data-name="Layer 2"><g id="Layer_1-2" data-name="Layer 1"><text class="cls-1" transform="translate(0 380.57)">m<tspan class="cls-2" x="139.16" y="0">a</tspan><tspan class="cls-3" x="231.56" y="0">g</tspan><tspan class="cls-4" x="317.21" y="0">a</tspan><tspan class="cls-5" x="406.88" y="0">z</tspan><tspan class="cls-6" x="489.48" y="0">i</tspan><tspan class="cls-7" x="542.02" y="0">n</tspan><tspan class="cls-8" x="638.76" y="0">e</tspan></text><path class="cls-9" d="M0,231.71H215.26l4.15-84.86-16-1.25c-12.46,52-36.74,70.14-90.39,70.14-19.47,0-24.27-1.57-24.27-16.91V123.37h4.47c28.11,0,39.93,11.9,45.36,43.21h16V62.94h-16c-5.43,31.31-16.93,43.52-45.36,43.52H88.79V38.51c0-15.66,4.8-16.91,23.31-16.91,49.19,0,71.55,16.91,83,65.44h15.65L208.24,5.63H0V21.92H16C30,21.92,32.26,26,32.26,38.51V198.83c0,12.52-2.55,16.28-16.29,16.28H0Zm357.06,5.63L430.19,59.17c9.91-24.42,24.28-36.94,42.17-37.57v-16H379.42v16.6c22,.62,31.3,5.64,31.3,19.41a43.9,43.9,0,0,1-3.2,15.66L362.81,168.77l-52.06-130c-1.59-4.07-2.55-6.89-2.55-9.08,0-5,5.11-7.82,15-7.82h11.18V5.63H222V21.92c14.05,0,21.07,3.44,25.23,13.15l83.67,202.27ZM535.66,30.68l73.05,201h15.82L693.16,29.43v169.4c0,12.52-2.53,16.28-16.13,16.28H662.79v16.6h118v-16.6H764.94c-13.59,0-16.13-3.76-16.13-16.28V38.51c0-12.52,2.54-16.59,16.13-16.59h15.82V5.63H680.51L633.7,140.9,584.36,5.63H482.22V21.92h16.13c13.6,0,15.81,5,15.81,16.9V175c0,27.87-5.06,38.82-33.52,40.08v16.6h91.08v-16.6c-29.41-.31-36.06-11-36.06-40.08ZM791.51,235.46h13.6l18.65-18.79c19.29,14.4,39.85,20.35,65.78,20.35,51.87,0,82.54-29.12,82.54-72.64,0-21.29-7.28-39.76-19.92-52C937.61,98.31,919,93.62,895.55,88.29c-43.64-10-69.26-11.9-69.26-38.19,0-21,15.18-33.82,42.38-33.82,34.15,0,56.61,21.92,78.11,68h14.87l-3.8-82.67H943.94L928.12,16.9A109.85,109.85,0,0,0,869,0c-48.71,0-81.28,30.37-81.28,70.45,0,40.39,26.25,59.49,78.75,72.33C894,149.67,913.58,152.8,924,160c7.26,5,11.69,13.78,11.69,23.8,0,22.54-16.44,36.63-44.27,36.63-38.26,0-68.3-26-86.65-75.77H788.66Z"/></g></g></svg>