<svg xmlns="http://www.w3.org/2000/svg" xmlns:xlink="http://www.w3.org/1999/xlink" viewBox="0 0 289.99 289.99"><defs><style>.cls-1{fill:none;}.cls-2{clip-path:url(#clip-path);}.cls-3{fill:#1f7f9b;}.cls-4{fill:#fff;}</style><clipPath id="clip-path"><rect class="cls-1" width="290" height="289.99"/></clipPath></defs><g id="Layer_2" data-name="Layer 2"><g id="Layer_1-2" data-name="Layer 1"><g class="cls-2"><path class="cls-3" d="M290,145A145,145,0,1,1,145,0,145,145,0,0,1,290,145"/><path class="cls-4" d="M118.46,221.47c64.3,0,99.46-53.26,99.46-99.45,0-1.51,0-3-.09-4.52a71.22,71.22,0,0,0,17.43-18.09,69.7,69.7,0,0,1-20.07,5.5,35.06,35.06,0,0,0,15.36-19.34,70,70,0,0,1-22.2,8.49A35,35,0,0,0,147.88,118a35.49,35.49,0,0,0,.91,8,99.27,99.27,0,0,1-72-36.53,35,35,0,0,0,10.83,46.67,34.72,34.72,0,0,1-15.83-4.37c0,.14,0,.29,0,.44a35,35,0,0,0,28,34.27,35,35,0,0,1-9.21,1.23A34.53,34.53,0,0,1,84,167a35,35,0,0,0,32.64,24.28,70.14,70.14,0,0,1-43.4,15,71.88,71.88,0,0,1-8.35-.48,99,99,0,0,0,53.58,15.69"/></g></g></g></svg>