<svg xmlns="http://www.w3.org/2000/svg" viewBox="0 0 290 290"><defs><style>.cls-1{fill:#217f9a;}.cls-2{fill:#fff;}</style></defs><g id="Layer_2" data-name="Layer 2"><g id="Layer_1-2" data-name="Layer 1"><circle class="cls-1" cx="145" cy="145" r="145"/><path class="cls-2" d="M238,98A24.4,24.4,0,0,0,220.84,80.7C205.7,76.62,145,76.62,145,76.62s-60.7,0-75.84,4.08A24.4,24.4,0,0,0,52,98c-4.06,15.24-4.06,47-4.06,47s0,31.79,4.06,47A24.4,24.4,0,0,0,69.16,209.3c15.14,4.08,75.84,4.08,75.84,4.08s60.7,0,75.84-4.08A24.4,24.4,0,0,0,238,192c4.06-15.24,4.06-47,4.06-47S242.06,113.21,238,98Z"/><polygon class="cls-1" points="125.15 173.86 125.15 116.14 175.88 145 125.15 173.86"/></g></g></svg>